<?xml version="1.0" standalone="no"?>
<!DOCTYPE svg PUBLIC "-//W3C//DTD SVG 20010904//EN"
 "http://www.w3.org/TR/2001/REC-SVG-20010904/DTD/svg10.dtd">
<svg version="1.0" xmlns="http://www.w3.org/2000/svg"
 width="260.000000pt" height="260.000000pt" viewBox="0 0 260.000000 260.000000"
 preserveAspectRatio="xMidYMid meet">
<metadata>
Created by potrace 1.14, written by Peter Selinger 2001-2017
</metadata>
<g transform="translate(0.000000,260.000000) scale(0.100000,-0.100000)"
fill="#000000" stroke="none">
<path d="M0 1300 l0 -1300 1300 0 1300 0 0 1300 0 1300 -1300 0 -1300 0 0
-1300z m991 895 c53 -8 107 -18 120 -24 22 -9 169 -52 325 -96 l61 -17 59 45
c74 58 106 67 127 37 20 -29 13 -45 -37 -79 -114 -80 -164 -172 -266 -486 -21
-66 -42 -130 -45 -143 l-6 -22 252 2 252 3 10 30 c5 17 53 156 108 310 54 154
99 284 99 288 0 5 9 30 21 57 22 51 39 64 70 55 25 -8 25 -50 -2 -123 -20 -57
-96 -272 -234 -667 -40 -115 -87 -248 -104 -295 -135 -369 -160 -482 -125
-570 18 -44 45 -63 106 -74 44 -8 64 -36 48 -66 -26 -48 -156 -10 -204 59 -76
109 -61 263 53 576 28 77 67 182 85 233 l34 92 -250 -2 -251 -3 -48 -140
c-109 -314 -185 -426 -338 -498 -61 -30 -74 -32 -176 -32 -97 0 -116 3 -160
24 -70 35 -117 81 -151 148 -27 54 -29 65 -29 173 0 112 1 118 34 183 69 135
207 228 344 231 l72 1 3 -32 c4 -38 -10 -47 -87 -57 -247 -32 -379 -339 -219
-512 53 -57 121 -79 221 -71 156 13 254 103 345 317 22 53 92 253 92 264 0 4
-20 6 -44 6 -52 0 -80 27 -67 64 7 18 18 22 76 26 l68 5 67 200 c36 110 83
234 103 277 20 42 37 80 37 86 0 5 -18 12 -40 16 -22 3 -77 18 -122 31 -46 14
-119 37 -163 50 -102 31 -235 49 -302 40 -69 -8 -135 -54 -181 -123 -35 -52
-37 -60 -37 -132 0 -68 3 -81 28 -117 55 -80 187 -106 313 -63 81 28 108 24
112 -17 4 -38 -9 -46 -109 -74 -178 -49 -332 1 -404 131 -27 49 -30 64 -30
140 0 76 4 91 32 145 17 33 51 78 75 101 106 100 184 119 379 89z"/>
</g>
</svg>
