<?xml version="1.0" standalone="no"?>
<!DOCTYPE svg PUBLIC "-//W3C//DTD SVG 20010904//EN"
 "http://www.w3.org/TR/2001/REC-SVG-20010904/DTD/svg10.dtd">
<svg version="1.0" xmlns="http://www.w3.org/2000/svg"
 width="260.000000pt" height="260.000000pt" viewBox="0 0 260.000000 260.000000"
 preserveAspectRatio="xMidYMid meet">
<metadata>
Created by potrace 1.14, written by Peter Selinger 2001-2017
</metadata>
<g transform="translate(0.000000,260.000000) scale(0.100000,-0.100000)"
fill="#000000" stroke="none">
<path d="M0 1300 l0 -1300 1300 0 1300 0 0 1300 0 1300 -1300 0 -1300 0 0
-1300z m660 540 c69 -13 168 -58 181 -82 12 -22 -12 -68 -35 -68 -8 0 -45 14
-82 32 -131 61 -274 36 -378 -66 -238 -232 -145 -653 163 -731 148 -38 312 38
349 164 7 21 12 85 12 143 0 113 6 128 52 128 22 0 31 -7 39 -27 15 -38 5
-227 -15 -281 -55 -151 -203 -239 -387 -230 -76 4 -97 9 -162 41 -176 87 -277
255 -277 462 0 161 49 286 154 390 109 109 243 152 386 125z m451 -27 c10 -28
11 -888 1 -948 -6 -34 -11 -40 -35 -43 -59 -7 -57 -24 -57 509 0 482 0 488 21
502 27 19 58 10 70 -20z m444 8 c104 -46 156 -128 163 -258 8 -138 -39 -228
-146 -280 -54 -26 -66 -28 -213 -32 -154 -3 -157 -3 -173 20 -21 30 -20 35 4
59 18 18 33 20 160 20 154 0 189 8 233 56 73 78 53 253 -35 316 -30 21 -46 23
-196 28 -168 5 -182 9 -182 50 0 45 21 50 190 46 123 -2 152 -6 195 -25z m283
13 l22 -15 0 -485 c0 -471 -1 -485 -20 -504 -11 -11 -25 -20 -30 -20 -5 0 -19
9 -30 20 -19 19 -20 33 -20 500 0 467 1 481 20 500 24 24 29 24 58 4z m546 -6
c9 -12 16 -27 16 -32 0 -6 -102 -113 -227 -238 -160 -160 -234 -228 -249 -228
-27 0 -54 25 -54 48 0 26 451 472 477 472 12 0 29 -10 37 -22z m-1567 -483
c17 -24 17 -40 -3 -59 -13 -13 -43 -16 -174 -16 -157 0 -160 0 -175 24 -18 27
-11 54 19 67 12 5 88 7 170 6 131 -4 151 -6 163 -22z m1440 -237 c182 -181
223 -228 223 -250 0 -25 -23 -48 -46 -48 -16 0 -464 455 -464 471 0 22 26 49
48 49 9 0 117 -100 239 -222z"/>
</g>
</svg>
